/* XPM */
static char * bsd_daemon_xpm[] = {
/* width height ncolors chars_per_pixel */
"64 64 6 1",
/* colors */
" 	s None	c None",
".	c #9A2C46",
"X	c black",
"o	c #958ADB",
"O	c red",
"+	c #FBFBFB",
/* pixels */
"                                                                ",
"                                                                ",
"                       .X.                                      ",
"                      ...o                                      ",
"                     .O..                       ..              ",
"                    oOO..                       .X.             ",
"                    oOO..       ..XXX.          oOO.            ",
"                    .OO..    ..XXOOOOOO..       oO..            ",
"                    .OO..  .XX.........OX..     .O...           ",
"                    .OO...XX...O....OO..OOX.    .....           ",
"                    .OO..X...+++OOO..O..OOO..o..OO...           ",
"                    oOOOX...++++OO.++.O.OOOXXXOOOO...           ",
"                     XOXOO.++++.O.++++.O.OXOOOOOOO...           ",
"                     XXOO.+++++OO+++++.OOOOOOOOO....            ",
"                     .XOO+++++.O.+++++.OOOOOOOO.....            ",
"                     XOOX.X..+.O.++++++OOOO.......              ",
"                    oOOXXXoX.+OXX.X.+++OOOOO....                ",
"                    .OOXXX.XXXOXX.o..++OOOOO....                ",
"                   oOOOXXXXXXXOXXXXX.+.OOOOO....                ",
"                   .OOOOXXXXXOOXXXXXX+.OOOOO....                ",
"       o           .OOOOOOOOOOOXXXXX..OOOOOO....                ",
"       ooo         XOOOOOOX.OO.OOXXXXXOOOOOO....                ",
"        ooo        OOOOOOO.OOO..OOOOOOOOOOOO....                ",
"           oo      XOOOOOOXOOOOO.OOOOOOOOOOO....                ",
"     oo     oo     .OOOOOOXOOOOXOOOOOOOOOOOO....                ",
"     oo      o     .OOXOOOOXXXXOOOOOOOOOOOO.....                ",
"     ooo     o     o.OXOOOOOOOOOOOOOOOOOXOO.....                ",
"       oo    o      ..OXXOOOOOOOOOOOXXXXXOO....                 ",
"         oo  o        .OO.XOOOOOOOXXO.OOOO....                  ",
"  oo      oooo          OOXXXOOOOXOOOOOOOO....                  ",
"  oo       oooo    ..    .OO.XXXXOOOOOOOOO...                   ",
"    o     oo ooooo..OO    oOOOOOOOOOOO..X.o                     ",
"     oooooo    oo.o..O.o   o.OOOOOOO.....                       ",
"                 ..ooo.o    oXXXXXXXX....                       ",
"                 ....oo.o   .OOOOOOOO....                       ",
"                 o.OO..oo.XXXOOOOOOOO....                       ",
"                  ...OO.o..XXOOOOOOO......                      ",
"                    o......OXXXOOOO.......                      ",
"                       ..OXOOOXXOOO.......                      ",
"                        ..XOOOOOXOOO......                      ",
"                         .XOOOOOOXXXX.....                      ",
"                         oXXOOOOOOOO......                      ",
"                         oXOXXOOOOOO.......                     ",
"                          .OOOXXX.OO.......                     ",
"                          .OOOOOOXXXXXX....                     ",
"                          oXOOOOOOOO..XXXX.                     ",
"                           .OOOOOOOOO......                     ",
"                           oOOOOOOOOO.........                  ",
"                          X..XOOOOOOO.............O....O        ",
"                       XXXXOO.XXOOOOO.................OOOO.     ",
"                   XXXXOO.oO++.XXXXOO...X.........OOO.OOOOOO    ",
"                 oX+++.O++O+++O.O.X.XXX..Xo..............OOOO   ",
"                 X+++++.O.+OOOO..O++OOOO+X               oOOO   ",
"                 X+++++.OOO.....O+O++++O+X             X  XOO   ",
"                 XX+++++....+.OO+O++O++O+X            o.ooOOO   ",
"                 X+XXXX...++++.O++O+OO..+X           ooXXXOO.   ",
"                 XX+++++.++++++XOOOO.++++X          oo.OOOOO    ",
"                   XXX..X.+++++XO..+++++X          .OOOO...     ",
"                        .+XX.....+++++.XX        oOOOO.OOOOO    ",
"                        X+++++++++...X          .OOO..........  ",
"                         X.......X                              ",
"                                                                ",
"                                                                ",
"                                                                "};
